<?xml version="1.0" encoding="utf-8"?>
<!-- Generator: Adobe Illustrator 25.4.0, SVG Export Plug-In . SVG Version: 6.00 Build 0)  -->
<svg version="1.1" id="Layer_1" xmlns="http://www.w3.org/2000/svg" xmlns:xlink="http://www.w3.org/1999/xlink" x="0px" y="0px"
	 viewBox="0 0 833.08 595.28" style="enable-background:new 0 0 833.08 595.28;" xml:space="preserve">
<style type="text/css">
	.st0{fill-rule:evenodd;clip-rule:evenodd;fill:#009900;}
	.st1{fill-rule:evenodd;clip-rule:evenodd;fill:#99CC00;}
	.st2{fill-rule:evenodd;clip-rule:evenodd;fill:#FFFFFF;}
	.st3{fill-rule:evenodd;clip-rule:evenodd;fill:#FFE600;}
	.st4{fill:#009900;}
	.st5{fill:none;}
</style>
<g>
	<g>
		<g>
			<path class="st0" d="M321.29,146.38c-9.84-23.23-21.92-40.97-26.69-48.14c-4.79,7.17-16.87,24.91-26.7,48.14
				c9.63,10.36,19.13,22.55,26.7,36.39C302.15,168.93,311.68,156.74,321.29,146.38z"/>
			<path class="st0" d="M267.9,448.97c9.82,23.23,21.91,40.95,26.7,48.13c4.77-7.18,16.86-24.89,26.69-48.13
				c-9.61-10.36-19.14-22.57-26.69-36.4C287.03,426.41,277.53,438.61,267.9,448.97z"/>
			<path class="st0" d="M267.9,146.38c-17.14-18.49-34.57-31-41.51-36.11c-2.05,8.36-7.32,29.16-8.6,54.36
				c12.56,6.44,25.68,14.66,37.51,25.04C257.68,174.09,262.42,159.38,267.9,146.38z"/>
			<path class="st0" d="M321.29,448.97c17.13,18.49,34.57,31,41.52,36.09c2.03-8.36,7.33-29.15,8.59-54.33
				c-12.56-6.44-25.68-14.69-37.5-25.07C331.53,421.24,326.76,435.95,321.29,448.97z"/>
			<path class="st0" d="M217.79,164.63c-22.45-11.49-43.11-17.3-51.37-19.75c0.93,8.59,3.07,29.94,10.5,54.05
				c14.01,1.73,29.14,4.97,43.82,10.71C217.63,194.19,217.06,178.72,217.79,164.63z"/>
			<path class="st0" d="M371.4,430.73c22.45,11.48,43.1,17.29,51.38,19.71c-0.93-8.56-3.09-29.92-10.52-54.02
				c-14.01-1.74-29.12-5.01-43.82-10.73C371.55,401.18,372.13,416.61,371.4,430.73z"/>
			<path class="st0" d="M195.08,240.22c-8.19-13.47-14-27.82-18.16-41.29c-25.03-3.14-46.42-1.53-55.03-0.97
				c3.81,7.71,13.13,27.04,28.32,47.17C163.99,241.97,179.33,239.87,195.08,240.22z"/>
			<path class="st0" d="M394.1,355.12c8.2,13.48,14.05,27.82,18.16,41.31c25.05,3.12,46.44,1.52,55.05,0.99
				c-3.82-7.76-13.13-27.09-28.35-47.22C425.2,353.36,409.88,355.48,394.1,355.12z"/>
			<path class="st0" d="M150.21,245.13c-24.57,5.62-44.12,14.43-52.01,17.92c6.23,5.94,21.6,20.92,42.77,34.63
				c11.84-7.65,25.52-14.92,40.47-19.95C169.12,267.86,158.75,256.36,150.21,245.13z"/>
			<path class="st0" d="M448.22,297.67c-11.85,7.68-25.53,14.92-40.46,19.96c12.3,9.85,22.69,21.32,31.21,32.56
				c24.59-5.61,44.14-14.42,52.04-17.89C484.77,326.36,469.4,311.35,448.22,297.67z"/>
			<path class="st0" d="M181.43,317.63c-14.95-5.04-28.63-12.29-40.47-19.96c-21.17,13.68-36.54,28.69-42.77,34.64
				c7.89,3.47,27.44,12.28,52.01,17.89C158.75,338.96,169.12,327.48,181.43,317.63z"/>
			<path class="st0" d="M407.76,277.71c14.93,5.03,28.61,12.3,40.46,19.95c21.18-13.7,36.56-28.69,42.79-34.63
				c-7.9-3.48-27.44-12.3-52.04-17.92C430.44,256.36,420.06,267.86,407.76,277.71z"/>
			<path class="st0" d="M150.21,350.2c-15.19,20.13-24.51,39.46-28.32,47.22c8.61,0.54,30,2.13,55.03-0.99
				c4.16-13.49,9.97-27.83,18.16-41.31C179.33,355.48,163.99,353.36,150.21,350.2z"/>
			<path class="st0" d="M438.97,245.13c15.21-20.12,24.53-39.45,28.35-47.2c-8.61-0.53-30-2.14-55.05,1
				c-4.12,13.47-9.96,27.82-18.16,41.29C409.88,239.87,425.2,241.97,438.97,245.13z"/>
			<path class="st0" d="M220.73,385.7c-14.68,5.72-29.81,8.98-43.82,10.73c-7.43,24.1-9.57,45.46-10.5,54.02
				c8.26-2.42,28.92-8.23,51.37-19.71C217.06,416.61,217.63,401.18,220.73,385.7z"/>
			<path class="st0" d="M368.45,209.64c14.7-5.75,29.81-8.98,43.82-10.71c7.43-24.12,9.59-45.47,10.52-54.05
				c-8.28,2.43-28.93,8.24-51.38,19.73C372.13,178.72,371.55,194.16,368.45,209.64z"/>
			<path class="st0" d="M217.79,430.73c1.27,25.18,6.55,45.97,8.6,54.33c6.94-5.09,24.37-17.6,41.51-36.09
				c-5.48-13.02-10.23-27.74-12.6-43.31C243.47,416.04,230.35,424.3,217.79,430.73z"/>
			<path class="st0" d="M371.4,164.6c-1.26-25.18-6.56-45.98-8.59-54.33c-6.95,5.1-24.39,17.61-41.52,36.11
				c5.47,12.98,10.23,27.71,12.61,43.29C345.72,179.29,358.85,171.06,371.4,164.6z"/>
		</g>
		<g>
			<path class="st1" d="M280.93,220.14c2.52-13.48,7.43-25.98,13.67-37.38c-7.57-13.83-17.06-26.02-26.7-36.39
				c-5.48,13.01-10.23,27.71-12.6,43.29C265.07,198.28,273.97,208.34,280.93,220.14z"/>
			<path class="st1" d="M308.27,375.19c-2.54,13.49-7.42,25.99-13.67,37.38c7.55,13.83,17.08,26.03,26.69,36.4
				c5.47-13.02,10.23-27.74,12.61-43.31C324.13,397.06,315.22,387,308.27,375.19z"/>
			<path class="st1" d="M220.73,209.64c12.1,4.73,23.9,11.14,34.5,19.83c-2.24-13.51-1.9-26.94,0.07-39.81
				c-11.83-10.38-24.95-18.59-37.51-25.04C217.06,178.72,217.63,194.19,220.73,209.64z"/>
			<path class="st1" d="M368.45,385.7c-12.1-4.72-23.88-11.16-34.47-19.84c2.23,13.52,1.88,26.93-0.08,39.81
				c11.82,10.38,24.95,18.63,37.5,25.07C372.13,416.61,371.55,401.18,368.45,385.7z"/>
			<path class="st1" d="M234.3,247.06c-6.75-11.93-11-24.67-13.57-37.42c-14.68-5.74-29.81-8.98-43.82-10.71
				c4.16,13.47,9.97,27.82,18.16,41.29C208.06,240.51,221.37,242.52,234.3,247.06z"/>
			<path class="st1" d="M354.91,348.27c6.72,11.94,10.99,24.66,13.54,37.42c14.7,5.72,29.81,8.99,43.82,10.73
				c-4.12-13.49-9.96-27.83-18.16-41.31C381.11,354.83,367.83,352.83,354.91,348.27z"/>
			<path class="st1" d="M181.43,277.71c12.3-4.17,25.48-6.83,39.19-6.98c-10.41-8.91-18.8-19.41-25.54-30.51
				c-15.75-0.36-31.09,1.74-44.87,4.9C158.75,256.36,169.12,267.86,181.43,277.71z"/>
			<path class="st1" d="M407.76,317.63c-12.31,4.15-25.48,6.81-39.19,6.96c10.41,8.92,18.79,19.44,25.53,30.53
				c15.78,0.36,31.1-1.76,44.87-4.92C430.44,338.95,420.06,327.48,407.76,317.63z"/>
			<path class="st1" d="M215.86,297.67c-12.82-4.81-24.28-11.84-34.43-19.95c-14.95,5.03-28.63,12.3-40.47,19.95
				c11.84,7.68,25.52,14.92,40.47,19.96C191.58,309.49,203.04,302.48,215.86,297.67z"/>
			<path class="st1" d="M373.32,297.67c12.85,4.82,24.29,11.82,34.44,19.96c14.93-5.04,28.61-12.29,40.46-19.96
				c-11.85-7.65-25.53-14.92-40.46-19.95C397.61,285.83,386.16,292.86,373.32,297.67z"/>
			<path class="st1" d="M195.08,355.12c6.74-11.09,15.13-21.6,25.54-30.53c-13.71-0.15-26.89-2.79-39.19-6.96
				c-12.31,9.85-22.68,21.33-31.22,32.56C163.99,353.36,179.33,355.48,195.08,355.12z"/>
			<path class="st1" d="M394.1,240.22c-6.74,11.11-15.12,21.6-25.53,30.51c13.71,0.14,26.88,2.81,39.19,6.98
				c12.3-9.85,22.69-21.35,31.21-32.59C425.2,241.97,409.88,239.87,394.1,240.22z"/>
			<path class="st1" d="M234.3,348.27c-12.93,4.56-26.24,6.55-39.22,6.84c-8.19,13.48-14,27.82-18.16,41.31
				c14.01-1.75,29.14-5.01,43.82-10.73C223.3,372.94,227.55,360.22,234.3,348.27z"/>
			<path class="st1" d="M354.91,247.06c12.92-4.54,26.2-6.55,39.19-6.84c8.2-13.47,14.05-27.82,18.16-41.29
				c-14.01,1.73-29.12,4.96-43.82,10.71C365.91,222.4,361.63,235.13,354.91,247.06z"/>
			<path class="st1" d="M280.93,375.19c-6.96,11.8-15.86,21.87-25.63,30.47c2.38,15.57,7.13,30.29,12.6,43.31
				c9.63-10.36,19.13-22.57,26.7-36.4C288.35,401.18,283.45,388.68,280.93,375.19z"/>
			<path class="st1" d="M255.23,365.85c-10.59,8.69-22.39,15.12-34.5,19.84c-3.1,15.48-3.67,30.92-2.94,45.04
				c12.56-6.44,25.68-14.69,37.51-25.07C253.33,392.78,252.99,379.36,255.23,365.85z"/>
			<path class="st1" d="M308.27,220.14c6.95-11.8,15.86-21.88,25.63-30.48c-2.37-15.58-7.14-30.31-12.61-43.29
				c-9.61,10.36-19.14,22.55-26.69,36.39C300.85,194.16,305.73,206.66,308.27,220.14z"/>
			<path class="st1" d="M333.98,229.48c10.59-8.69,22.37-15.1,34.47-19.83c3.11-15.48,3.69-30.93,2.96-45.04
				c-12.56,6.45-25.68,14.68-37.5,25.06C335.86,202.54,336.21,215.97,333.98,229.48z"/>
		</g>
		<path class="st2" d="M280.98,260.28c-7.03-12.55-15.86-22.67-25.75-30.8c2.09,12.64,6.44,25.33,13.78,37.7
			c-10.9-9.38-22.64-15.87-34.71-20.12c6.25,11.14,14.69,21.6,25.85,30.71c-13.48-5.1-26.74-7.18-39.52-7.03
			c9.71,8.34,21.18,15.24,34.78,20.02c-14.39-0.19-27.55,2.4-39.54,6.9c11.99,4.5,25.15,7.09,39.54,6.91
			c-13.59,4.76-25.07,11.69-34.78,20.01c12.78,0.14,26.04-1.92,39.52-7.02c-11.15,9.1-19.6,19.54-25.85,30.7
			c12.07-4.24,23.81-10.75,34.71-20.12c-7.34,12.37-11.69,25.06-13.78,37.7c9.89-8.13,18.72-18.24,25.75-30.77
			c-2.67,14.12-2.39,27.54-0.05,40.11c6.52-11.03,11.33-23.54,13.67-37.72c2.34,14.18,7.15,26.69,13.67,37.72
			c2.36-12.57,2.6-25.99-0.06-40.11c7.03,12.53,15.85,22.64,25.76,30.77c-2.09-12.64-6.46-25.33-13.81-37.7
			c10.92,9.37,22.67,15.88,34.75,20.12c-6.29-11.16-14.72-21.59-25.85-30.7c13.47,5.1,26.71,7.16,39.51,7.02
			c-9.72-8.33-21.21-15.25-34.78-20.03c14.37,0.2,27.54-2.39,39.52-6.89c-11.98-4.5-25.15-7.09-39.52-6.9
			c13.57-4.78,25.05-11.68,34.78-20.02c-12.8-0.14-26.04,1.93-39.53,7.03c11.15-9.11,19.58-19.56,25.87-30.71
			c-12.08,4.27-23.83,10.74-34.75,20.12c7.36-12.38,11.72-25.08,13.81-37.71c-9.91,8.14-18.73,18.25-25.76,30.8
			c2.66-14.15,2.41-27.57,0.06-40.14c-6.53,11-11.33,23.53-13.67,37.73c-2.34-14.2-7.15-26.73-13.67-37.73
			C278.59,232.71,278.31,246.13,280.98,260.28z"/>
		<g>
			<path class="st3" d="M280.98,260.28c-2.67-14.15-2.39-27.57-0.05-40.14c-6.96-11.8-15.86-21.86-25.63-30.48
				c-1.97,12.87-2.3,26.3-0.07,39.81C265.12,237.61,273.95,247.73,280.98,260.28z"/>
			<path class="st3" d="M308.22,335.08c2.66,14.12,2.41,27.54,0.06,40.11c6.95,11.8,15.86,21.87,25.63,30.47
				c1.96-12.88,2.31-26.29,0.08-39.81C324.07,357.72,315.24,347.61,308.22,335.08z"/>
			<path class="st3" d="M255.23,229.48c-10.59-8.69-22.39-15.1-34.5-19.83c2.57,12.75,6.82,25.49,13.57,37.42
				c12.07,4.24,23.81,10.74,34.71,20.12C261.67,254.81,257.32,242.11,255.23,229.48z"/>
			<path class="st3" d="M333.98,365.85c10.59,8.69,22.37,15.12,34.47,19.84c-2.54-12.76-6.82-25.48-13.54-37.42
				c-12.08-4.24-23.83-10.75-34.75-20.12C327.52,340.52,331.89,353.21,333.98,365.85z"/>
			<path class="st3" d="M260.15,277.77c-11.15-9.11-19.6-19.56-25.85-30.71c-12.93-4.54-26.24-6.55-39.22-6.84
				c6.74,11.11,15.13,21.6,25.54,30.51C233.4,270.59,246.67,272.67,260.15,277.77z"/>
			<path class="st3" d="M329.06,317.58c11.13,9.1,19.56,19.54,25.85,30.7c12.92,4.56,26.2,6.55,39.19,6.84
				c-6.74-11.09-15.12-21.6-25.53-30.53C355.77,324.73,342.53,322.68,329.06,317.58z"/>
			<path class="st3" d="M255.4,290.76c-13.59-4.78-25.07-11.68-34.78-20.02c-13.71,0.14-26.89,2.81-39.19,6.98
				c10.15,8.12,21.6,15.15,34.43,19.95C227.85,293.17,241.01,290.57,255.4,290.76z"/>
			<path class="st3" d="M333.79,304.56c13.57,4.78,25.05,11.71,34.78,20.03c13.71-0.15,26.88-2.81,39.19-6.96
				c-10.15-8.14-21.6-15.15-34.44-19.96C361.34,302.17,348.17,304.76,333.79,304.56z"/>
			<path class="st3" d="M215.86,297.67c-12.82,4.82-24.28,11.82-34.43,19.96c12.3,4.17,25.48,6.81,39.19,6.96
				c9.71-8.33,21.18-15.25,34.78-20.01C241.01,304.76,227.85,302.17,215.86,297.67z"/>
			<path class="st3" d="M373.32,297.67c12.85-4.81,24.29-11.84,34.44-19.95c-12.31-4.17-25.48-6.83-39.19-6.98
				c-9.72,8.34-21.21,15.24-34.78,20.02C348.17,290.57,361.34,293.17,373.32,297.67z"/>
			<path class="st3" d="M260.15,317.58c-13.48,5.1-26.74,7.16-39.52,7.02c-10.41,8.92-18.8,19.44-25.54,30.53
				c12.98-0.29,26.29-2.29,39.22-6.84C240.55,337.12,248.99,326.68,260.15,317.58z"/>
			<path class="st3" d="M329.04,277.77c13.49-5.1,26.73-7.18,39.53-7.03c10.41-8.91,18.79-19.41,25.53-30.51
				c-12.99,0.29-26.27,2.3-39.19,6.84C348.62,258.21,340.19,268.66,329.04,277.77z"/>
			<path class="st3" d="M280.93,375.19c2.52,13.49,7.43,25.99,13.67,37.38c6.25-11.39,11.13-23.89,13.67-37.38
				c-6.53-11.03-11.33-23.54-13.67-37.72C292.26,351.66,287.45,364.16,280.93,375.19z"/>
			<path class="st3" d="M280.98,335.08c-7.03,12.53-15.86,22.64-25.75,30.77c-2.24,13.51-1.9,26.93,0.07,39.81
				c9.77-8.6,18.67-18.66,25.63-30.47C278.59,362.62,278.31,349.21,280.98,335.08z"/>
			<path class="st3" d="M234.3,348.27c-6.75,11.94-11,24.66-13.57,37.42c12.1-4.72,23.9-11.16,34.5-19.84
				c2.09-12.64,6.44-25.33,13.78-37.7C258.11,337.52,246.37,344.03,234.3,348.27z"/>
			<path class="st3" d="M308.27,220.14c-2.54-13.48-7.42-25.98-13.67-37.38c-6.25,11.4-11.15,23.9-13.67,37.38
				c6.52,11,11.33,23.53,13.67,37.73C296.94,243.68,301.75,231.14,308.27,220.14z"/>
			<path class="st3" d="M308.22,260.28c7.03-12.55,15.85-22.67,25.76-30.8c2.23-13.51,1.88-26.94-0.08-39.81
				c-9.77,8.59-18.68,18.67-25.63,30.48C310.63,232.71,310.87,246.13,308.22,260.28z"/>
			<path class="st3" d="M354.91,247.06c6.72-11.93,10.99-24.67,13.54-37.42c-12.1,4.73-23.88,11.14-34.47,19.83
				c-2.09,12.64-6.46,25.33-13.81,37.71C331.08,257.8,342.83,251.33,354.91,247.06z"/>
		</g>
	</g>
	<g>
		<g>
			<path class="st4" d="M619.37,259.54c-8.8-9.98-20.88-12.28-30.46-12.28c-21.85,0-28.92,12.07-31.4,16.48V213H539.5v115.69
				l-0.38,17.23h17.45l0.37-14.55c1.9,2.88,4.02,6.12,9.36,9.73c8.27,5.59,16.87,6.16,21.47,6.16c13.21,0,26.07-5.55,33.71-16.47
				c4.8-6.34,9.17-16.49,9.17-35.08C630.66,274.66,624.16,265.08,619.37,259.54z M583.96,334.25c-26.85,0-26.85-30.08-26.85-36.42
				c0-6.12,0-38.29,27.58-38.29c25.09,0,27.03,27.76,27.03,37.34C611.72,312.58,606.18,334.25,583.96,334.25z"/>
		</g>
		<g>
			<path class="st4" d="M694.46,248.23c-7.85,0-23.74,2.29-32.76,17.42l-0.37-15.9h-18.22c0.38,9.17,0.58,11.48,0.58,15.7v117.43
				h17.84v-47.7c5.15,8.43,15.49,14.38,29.5,14.38c22.98,0,43.87-15.71,43.87-51.54C734.9,262.39,715.15,248.23,694.46,248.23z
				 M708.27,326.95c-6.13,8.45-15.72,9.39-20.32,9.39c-25.3,0-27.02-23.96-27.02-35.63c0-8.63,0-39.06,28.74-39.06
				c21.27,0,26.44,17.97,26.44,35.23C716.12,303.78,715.15,317.57,708.27,326.95z"/>
		</g>
	</g>
	<g>
		<polygon class="st5" points="98.2,583.5 491.01,583.5 491.01,595.29 98.2,595.29 98.2,583.5 		"/>
	</g>
	<g>
		<path class="st5" d="M-0.02,0v595.28h833.09V0H-0.02z M583.96,334.25c-26.85,0-26.85-30.08-26.85-36.42
			c0-6.12,0-38.29,27.58-38.29c25.09,0,27.03,27.76,27.03,37.34C611.72,312.58,606.18,334.25,583.96,334.25z M708.27,326.95
			c-6.13,8.45-15.72,9.39-20.32,9.39c-25.3,0-27.02-23.96-27.02-35.63c0-8.63,0-39.06,28.74-39.06c21.27,0,26.44,17.97,26.44,35.23
			C716.12,303.78,715.15,317.57,708.27,326.95z"/>
	</g>
</g>
</svg>
